<svg width="25" height="21" fill="none" xmlns="http://www.w3.org/2000/svg"><path d="M23.2172 8.32089L23.2556 8.32929H6.79441L11.9692 3.14309C12.2226 2.88989 12.3616 2.54689 12.3616 2.18689C12.3616 1.82689 12.2226 1.48629 11.9692 1.23249L11.164 0.426891C10.9108 0.173691 10.5734 0.0336914 10.2136 0.0336914C9.85361 0.0336914 9.51601 0.172691 9.26281 0.425891L0.392205 9.29569C0.138005 9.54989 -0.000994642 9.88849 5.35827e-06 10.2487C-0.000994642 10.6109 0.138005 10.9497 0.392205 11.2035L9.26281 20.0741C9.51601 20.3271 9.85341 20.4663 10.2136 20.4663C10.5734 20.4663 10.9108 20.3269 11.164 20.0741L11.9692 19.2685C12.2226 19.0157 12.3616 18.6781 12.3616 18.3181C12.3616 17.9583 12.2226 17.6385 11.9692 17.3855L6.73601 12.1703H23.2356C23.977 12.1703 24.6 11.5313 24.6 10.7903V9.65089C24.6 8.90989 23.9586 8.32089 23.2172 8.32089Z" fill="#494949"/></svg>